<svg version="1.2" xmlns="http://www.w3.org/2000/svg" viewBox="0 0 469 185" width="469" height="185">
	<title>uniswap</title>
	<style>
		.s0 { fill: #181818 }
	</style>
	<path id="LUM   RE" class="s0" aria-label="LUM   RE"  d="m79.1 183h-42.9v-73.2h8.8v66.2h34.1zm35.4 1.2q-7.5 0-13.7-2.9-6.1-3-9.7-9.3-3.7-6.3-3.7-16v-46.2h8.8v46.3q0 10.7 5.1 15.5 5.1 4.8 13.4 4.8 8.3 0 13.3-4.8 5-4.8 5-15.5v-46.3h8.8v46.2q0 9.7-3.7 16-3.6 6.3-9.8 9.3-6.2 2.9-13.8 2.9zm50.9-1.2h-8.8v-73.2h10.3l26.4 51 26.1-51h10.4v73.2h-8.8v-57.5l-24.5 47h-6.6l-24.5-46.9zm171.8 0h-8.8v-73.3h23.7q8.5 0 14 2.9 5.4 2.8 8 7.7 2.6 4.9 2.6 10.9 0 6.9-3.7 12.4-3.7 5.6-11.5 7.9l16 31.5h-10.4l-14.8-30.3h-0.7-14.4zm0-65.8v28.7h14.2q8.5 0 12.4-4.1 3.8-4.1 3.8-10.4 0-6.5-3.8-10.3-3.8-3.9-12.5-3.9zm98.6 65.8h-45.3v-73.2h45.3v7.2h-36.6v25.6h33.4v7.1h-33.4v26.1h36.6z"/>
	<g class="s0" transform="matrix(.0868,0,0,.0868,142,228) scale(1,-1)">
		<path d="M501 2576 c-10 -12 22 -64 170 -275 l182 -261 268 -257 c148 -142 275 -258 284 -258 8 0 130 128 271 285 l257 285 151 94 c375 234 466 289 466 283 0 -3 -11 -17 -24 -31 -13 -15 -110 -141 -216 -281 l-192 -255 -272 -227 c-262 -220 -279 -237 -503 -488 -128 -144 -233 -269 -233 -278 0 -9 32 -100 71 -202 l71 -187 151 -7 c145 -6 153 -5 167 14 16 21 16 21 40 -5 13 -14 29 -24 36 -21 6 2 72 10 147 17 74 6 140 15 145 18 10 6 112 339 112 366 0 9 -80 113 -177 231 -166 201 -213 244 -213 198 0 -9 72 -102 159 -209 88 -106 165 -201 171 -211 10 -16 4 -47 -33 -173 -25 -84 -48 -155 -51 -158 -2 -3 -60 -11 -128 -18 -111 -12 -125 -11 -140 4 -16 15 -15 19 33 75 68 80 62 86 -97 86 -121 0 -124 0 -124 -22 0 -14 21 -43 52 -75 36 -37 49 -56 42 -63 -7 -7 -58 -10 -134 -8 l-123 3 -63 165 c-35 91 -63 170 -62 177 2 6 105 125 230 265 216 241 239 264 495 478 l268 224 249 330 c137 182 252 341 254 354 4 20 1 23 -18 20 -12 -1 -182 -102 -378 -222 l-357 -220 -210 -233 c-115 -128 -229 -254 -251 -280 l-42 -47 -260 253 c-231 224 -271 268 -348 379 -48 70 -112 160 -142 200 -29 41 -52 75 -50 77 2 1 94 -50 205 -114 188 -107 221 -131 449 -319 230 -191 279 -222 279 -182 0 7 -113 107 -251 221 -249 205 -254 208 -509 353 -142 80 -259 146 -260 146 -2 0 -8 -6 -14 -14z m1113 -1927 l-28 -29 -28 27 c-15 15 -28 29 -28 32 0 3 25 4 56 3 l56 -4 -28 -29z"/>
	</g>
</svg>