<?xml version="1.0" standalone="no"?>
<!DOCTYPE svg PUBLIC "-//W3C//DTD SVG 20010904//EN"
 "http://www.w3.org/TR/2001/REC-SVG-20010904/DTD/svg10.dtd">
<svg version="1.0" xmlns="http://www.w3.org/2000/svg"
 width="300.000000pt" height="300.000000pt" viewBox="0 0 300.000000 300.000000"
 preserveAspectRatio="xMidYMid meet">
<metadata>
Created by potrace 1.10, written by Peter Selinger 2001-2011
</metadata>
<g transform="translate(0.000000,300.000000) scale(0.100000,-0.100000)"
fill="#000000" stroke="2px">
<path d="M506 2571 c-4 -5 24 -54 62 -108 38 -54 116 -168 174 -253 101 -149
116 -165 376 -417 148 -145 276 -263 283 -263 8 0 130 128 272 284 224 247
268 291 335 332 42 27 191 121 329 210 139 89 253 161 253 159 0 -3 -44 -62
-97 -132 -54 -71 -158 -209 -232 -308 l-135 -180 -285 -245 c-259 -223 -305
-267 -509 -492 -191 -211 -221 -250 -212 -265 6 -10 37 -92 70 -183 33 -90 64
-168 68 -172 5 -5 71 -11 148 -14 134 -6 140 -6 158 15 l19 21 26 -24 c26 -25
27 -25 126 -16 55 5 124 12 152 16 l53 6 21 72 c12 39 36 122 54 184 l32 114
-180 216 c-166 200 -207 242 -207 213 0 -6 77 -104 170 -217 94 -113 173 -211
176 -217 4 -12 -81 -325 -91 -335 -2 -3 -64 -10 -137 -17 -117 -11 -135 -11
-151 3 -9 8 -17 19 -17 24 0 5 23 33 50 62 28 29 50 58 50 64 0 9 -38 12 -130
12 -71 0 -130 -4 -130 -8 0 -5 12 -19 26 -33 14 -13 40 -41 56 -62 26 -32 28
-40 17 -54 -12 -14 -31 -15 -144 -9 -71 4 -130 8 -130 9 -1 1 -29 80 -64 175
l-62 172 225 248 c204 224 249 268 495 477 l271 230 262 348 c190 253 258 351
250 359 -12 12 -12 11 -487 -290 l-250 -159 -223 -244 c-123 -134 -239 -261
-258 -283 l-33 -38 -266 258 c-257 251 -269 264 -373 417 -59 87 -126 185
-150 218 -23 32 -40 59 -37 59 4 0 198 -109 401 -226 23 -13 153 -116 289
-229 172 -142 252 -202 259 -195 7 7 6 14 -4 24 -27 24 -471 391 -488 402 -16
11 -499 286 -514 292 -3 2 -9 -1 -12 -7z m1117 -1925 l-38 -41 -37 40 c-20 22
-37 42 -38 45 0 3 34 4 76 2 l75 -4 -38 -42z"/>
</g>
</svg>
